<?xml version="1.0" encoding="utf-8"?>
<!-- Generator: Adobe Illustrator 15.0.0, SVG Export Plug-In . SVG Version: 6.00 Build 0)  -->
<!DOCTYPE svg PUBLIC "-//W3C//DTD SVG 1.1//EN" "http://www.w3.org/Graphics/SVG/1.1/DTD/svg11.dtd">
<svg version="1.1" id="Layer_1" xmlns="http://www.w3.org/2000/svg" xmlns:xlink="http://www.w3.org/1999/xlink" x="0px" y="0px"
	 width="903px" height="234px" viewBox="0 0 903 234" enable-background="new 0 0 903 234" xml:space="preserve">
<g id="g10" transform="matrix(1.3333333,0,0,-1.3333333,0,1024)">
	<g id="g12" transform="scale(0.1)">
		<path id="path14" fill="#FFFFFF" d="M5980.16,7660.189h145.225V6706.1l396.555,383.525h206.66l-420.754-396.555l463.579-474.763
			h-214.102l-431.938,458.013v-458.013H5980.16V7660.189z M5232.84,6447.306c28.542-36.021,59.868-64.548,94.028-85.635
			c34.109-21.123,77.263-31.655,129.39-31.655c22.346,0,44.971,2.468,67.954,7.449c22.947,4.944,43.762,13.03,62.38,24.207
			c18.611,11.169,33.508,25.137,44.678,41.887c11.169,16.758,16.75,36.907,16.75,60.505c0,23.562-5.288,42.825-15.82,57.715
			c-10.562,14.897-24.521,27.612-41.887,38.167c-17.402,10.532-37.244,18.911-59.583,25.129
			c-22.339,6.204-45.322,11.792-68.877,16.765c-40.972,8.665-80.061,18.618-117.305,29.788
			c-37.229,11.169-69.814,25.752-97.749,43.748c-27.92,17.981-50.259,41.25-67.017,69.814
			c-16.75,28.55-25.129,65.171-25.129,109.856c0,42.18,9.309,79.424,27.927,111.702c18.611,32.263,43.433,58.938,74.473,80.061
			c31.011,21.086,65.771,37.229,104.26,48.413c38.445,11.169,78.186,16.758,119.15,16.758c62.051,0,119.451-12.429,172.214-37.244
			c52.742-24.851,94.021-65.171,123.816-121.018l-121.026-80.061c-18.618,31.018-43.14,56.14-73.535,75.41
			c-30.432,19.219-67.339,28.85-110.779,28.85c-19.863,0-40.034-2.498-60.513-7.449c-20.471-4.973-38.796-12.422-54.917-22.332
			c-16.143-9.946-29.502-22.668-40.034-38.167c-10.562-15.535-15.82-33.23-15.82-53.064c0-18.625,5.881-34.438,17.681-47.476
			c11.785-13.03,27.935-24.521,48.413-34.453c20.479-9.939,44.041-18.611,70.745-26.052c26.682-7.456,54.287-13.674,82.852-18.625
			c38.459-7.441,75.081-17.073,109.849-28.865c34.731-11.799,65.164-27.627,91.23-47.468c26.06-19.871,46.546-44.678,61.436-74.473
			c14.897-29.788,22.346-66.416,22.346-109.834c0-49.673-9.946-91.882-29.788-126.599c-19.871-34.775-46.26-63.025-79.131-84.727
			c-32.9-21.724-70.137-37.559-111.709-47.468c-41.602-9.932-84.104-14.897-127.529-14.897c-74.473,0-138.713,11.491-192.693,34.445
			c-54.001,22.947-102.729,65.457-146.155,127.537L5232.84,6447.306z M4861.597,6732.167
			c-2.498,74.473-26.697,134.048-72.605,178.733c-45.93,44.678-109.233,67.017-189.902,67.017
			c-80.698,0-145.862-22.339-195.491-67.017c-49.658-44.685-79.446-104.26-89.355-178.733H4861.597z M4986.343,6376.568
			c-52.134-67.039-109.233-113.899-171.284-140.581c-62.08-26.668-134.048-40.02-215.969-40.02
			c-68.276,0-129.719,12.1-184.321,36.299c-54.624,24.199-100.847,56.792-138.699,97.749
			c-37.881,40.964-67.031,89.363-87.51,145.225c-20.479,55.847-30.71,115.43-30.71,178.726c0,67.024,11.162,128.76,33.508,185.251
			c22.346,56.462,53.35,104.868,93.091,145.217c39.705,40.32,86.865,71.682,141.489,94.021
			c54.609,22.339,114.185,33.523,178.733,33.523c60.813,0,116.66-10.239,167.571-30.725c50.881-20.486,94.629-50.281,131.25-89.37
			c36.599-39.097,64.849-86.895,84.712-143.357c19.849-56.492,29.788-120.718,29.788-192.693v-46.545h-703.748
			c2.468-37.244,11.455-72.942,26.99-107.065c15.505-34.146,35.669-63.933,60.505-89.355c24.822-25.452,53.994-45.608,87.502-60.513
			c33.523-14.89,70.107-22.339,109.849-22.339c63.303,0,116.653,11.169,160.115,33.508c43.433,22.339,82.529,55.225,117.297,98.672
			L4986.343,6376.568z M3827.762,6653.966c0,45.901-7.163,88.44-21.409,127.529c-14.29,39.104-35.083,73.22-62.373,102.4
			c-27.319,29.15-59.897,52.134-97.749,68.892c-37.874,16.758-80.369,25.129-127.529,25.129c-47.183,0-89.678-8.372-127.529-25.129
			c-37.881-16.758-70.459-39.741-97.749-68.892c-27.312-29.18-48.113-63.296-62.358-102.4
			c-14.297-39.089-21.416-81.628-21.416-127.529c0-45.93,7.119-88.44,21.416-127.529c14.246-39.097,35.046-73.25,62.358-102.4
			c27.29-29.18,59.868-52.126,97.749-68.892c37.852-16.75,80.347-25.129,127.529-25.129c47.161,0,89.663,8.379,127.529,25.129
			c37.852,16.765,70.43,39.712,97.749,68.892c27.29,29.15,48.083,63.303,62.373,102.4
			C3820.599,6565.526,3827.762,6608.036,3827.762,6653.966z M3827.762,6372.84h-3.721c-27.319-49.666-70.459-91.545-129.397-125.676
			c-58.975-34.116-127.529-51.196-205.73-51.196c-60.835,0-117.935,11.491-171.284,34.445
			c-53.379,22.947-99.609,54.91-138.706,95.875c-39.089,40.972-69.814,89.37-92.153,145.217
			c-22.346,55.862-33.508,116.66-33.508,182.461c0,65.771,11.162,126.599,33.508,182.461c22.339,55.847,53.35,104.26,93.091,145.217
			c39.697,40.964,87.788,72.905,144.287,95.881c56.462,22.954,118.835,34.453,187.104,34.453
			c63.311,0,121.311-13.044,174.075-39.104c52.742-26.067,98.972-62.688,138.713-109.849h3.721v697.163h145.217V6218.307h-145.217
			V6372.84z M1660.554,7483.236l-101.631,42.092l-114.8-277.163l101.616-42.1L1660.554,7483.236z M654.419,7206.065l101.631,42.1
			l-114.807,277.163l-101.631-42.092L654.419,7206.065z M1045.078,7307.308h110.002v300h-110.002V7307.308z M1701.629,6655.606
			c0-106.897-15.205-232.009-31.45-335.142c-128.577-112.215-313.967-209.458-570.418-209.458
			c-127.939,0-238.169,24.229-332.512,62.432l92.6,92.6c70.034-41.331,152.124-65.134,239.912-65.134
			c256.582,0,464.568,203.115,464.568,453.677c0,250.554-207.986,453.669-464.568,453.669
			c-256.575,0-464.561-203.115-464.561-453.669c0-93.281,28.857-179.963,78.289-252.056l-127.478-127.478
			c-21.064,15.52-40.913,31.582-59.524,47.959c-16.084,102.649-31.055,226.567-31.055,332.6
			c0,105.212,14.736,228.032,30.688,330.212c128.701,113.416,315.022,212.329,573.64,212.329
			c256.699,0,442.193-97.434,570.791-209.788C1686.651,6885.675,1701.629,6761.69,1701.629,6655.606L1701.629,6655.606z
			 M2219.37,6460.826c-107.007,0-190.422,73.96-190.422,193.748c0,119.795,83.416,193.755,190.422,193.755
			c107,0,187.698-86.741,187.698-193.755C2407.068,6547.567,2326.37,6460.826,2219.37,6460.826z M2261.448,7106.581
			c-89.854,0-173.005-21.614-241.113-66.277c1.765,27.92,3.193,54.155,3.193,66.35c0,32.292,0,553.535,0,553.535h-273.325V6220.408
			h254.766c-23.687,27.43-42.327,60.835-54.69,100.87c-0.71,2.278,1.406,4.182,3.083,2.483
			c25.496-25.723,53.159-48.201,83.738-66.855c64.812-37.669,141.731-56.001,224.348-56.001
			c261.255,0,417.502,202.742,417.502,452.842C2678.95,6903.839,2521.45,7106.581,2261.448,7106.581z M1268.496,6694.798
			c-75.044,0-135.886,60.842-135.886,135.886c0,23.005,5.757,44.641,15.85,63.633c-15.74,3.179-32.021,4.871-48.699,4.871
			c-135.088,0-244.6-109.519-244.6-244.614c0-135.088,109.512-244.607,244.6-244.607c135.103,0,244.607,109.519,244.607,244.607
			c0,20.347-2.52,40.093-7.2,58.982c-20.171-11.851-43.579-18.757-68.665-18.757H1268.496z M313.953,7365.697
			c87.136,0,157.764,70.642,157.764,157.778c0,87.144-70.627,157.771-157.764,157.771c-87.144,0-157.786-70.627-157.786-157.771
			C156.167,7436.339,226.809,7365.697,313.953,7365.697z M6.35,5931.248v237.495c0,0,67.961-0.358,118.748,50.42
			c39.214,39.222,48.435,97.5,48.435,124.585c0,22.917,0,839.59,0,839.59h273.34c0,0,0-746.462,0-833.752
			c0-85.422-23.306-208.792-114.836-300.33C210.857,5928.084,58.118,5931.248,6.35,5931.248"/>
	</g>
</g>
</svg>
